<svg width="1440" height="212" viewBox="0 0 1440 212" fill="none" xmlns="http://www.w3.org/2000/svg">
<path d="M1440 0V212H0.5V98C52.5 175 319.7 203.1 528.5 197.5C737.3 191.9 1284 126 1440 0Z" fill="#FFDFF6" fill-opacity="0.2"/>
<path d="M1440 0V212H0.5V98C52.5 175 319.7 203.1 528.5 197.5C737.3 191.9 1284 126 1440 0Z" fill="#FFDFF6" fill-opacity="0.2"/>
<path d="M1440 0V212H0.5V98C52.5 175 319.7 203.1 528.5 197.5C737.3 191.9 1284 126 1440 0Z" fill="#FFDFF6" fill-opacity="0.2"/>
<path d="M1440 0V212H0.5V98C52.5 175 319.7 203.1 528.5 197.5C737.3 191.9 1284 126 1440 0Z" fill="#FFDFF6" fill-opacity="0.2"/>
<path d="M1440 0V212H0.5V98C52.5 175 319.7 203.1 528.5 197.5C737.3 191.9 1284 126 1440 0Z" fill="#FFDFF6" fill-opacity="0.2"/>
<path d="M1440 0V212H0.5V98C52.5 175 319.7 203.1 528.5 197.5C737.3 191.9 1284 126 1440 0Z" fill="#FFDFF6" fill-opacity="0.2"/>
<path d="M1440 0V212H0.5V98C52.5 175 319.7 203.1 528.5 197.5C737.3 191.9 1284 126 1440 0Z" fill="#FFDFF6" fill-opacity="0.2"/>
<path d="M1440 0V212H0.5V98C52.5 175 319.7 203.1 528.5 197.5C737.3 191.9 1284 126 1440 0Z" fill="#FFDFF6" fill-opacity="0.2"/>
<path d="M1440 0V212H0.5V98C52.5 175 319.7 203.1 528.5 197.5C737.3 191.9 1284 126 1440 0Z" fill="#FFDFF6" fill-opacity="0.2"/>
<path d="M1440 0V212H0.5V98C52.5 175 319.7 203.1 528.5 197.5C737.3 191.9 1284 126 1440 0Z" fill="#FFDFF6" fill-opacity="0.2"/>
<path d="M1440 39.5V212H0.5V98C52.5 175 319.7 203.1 528.5 197.5C737.3 191.9 1224.83 113.5 1440 39.5Z" fill="#FFDFF6" fill-opacity="0.2"/>
<path d="M1440 39.5V212H0.5V98C52.5 175 319.7 203.1 528.5 197.5C737.3 191.9 1224.83 113.5 1440 39.5Z" fill="#FFDFF6" fill-opacity="0.2"/>
<path d="M1440 24V212H0.5V131.5C125.5 193 319.7 203.1 528.5 197.5C737.3 191.9 1279.5 131.5 1440 24Z" fill="#B88BAB" fill-opacity="0.4"/>
<path d="M1440 24V212H0.5V131.5C125.5 193 319.7 203.1 528.5 197.5C737.3 191.9 1279.5 131.5 1440 24Z" fill="#B88BAB" fill-opacity="0.4"/>
<path d="M1440 24V212H0.5V131.5C125.5 193 319.7 203.1 528.5 197.5C737.3 191.9 1279.5 131.5 1440 24Z" fill="#B88BAB" fill-opacity="0.4"/>
<path d="M1440 24V212H0.5V131.5C125.5 193 319.7 203.1 528.5 197.5C737.3 191.9 1279.5 131.5 1440 24Z" fill="#B88BAB" fill-opacity="0.4"/>
<path d="M1440 24V212H0.5V131.5C125.5 193 319.7 203.1 528.5 197.5C737.3 191.9 1279.5 131.5 1440 24Z" fill="#B88BAB" fill-opacity="0.4"/>
<path d="M1440 24V212H0.5V131.5C125.5 193 319.7 203.1 528.5 197.5C737.3 191.9 1279.5 131.5 1440 24Z" fill="#B88BAB" fill-opacity="0.4"/>
<path d="M1440 24V212H0.5V131.5C125.5 193 319.7 203.1 528.5 197.5C737.3 191.9 1279.5 131.5 1440 24Z" fill="#B88BAB" fill-opacity="0.4"/>
<path d="M1440 24V212H0.5V131.5C125.5 193 319.7 203.1 528.5 197.5C737.3 191.9 1279.5 131.5 1440 24Z" fill="#B88BAB" fill-opacity="0.4"/>
<path d="M1440 24V212H0.5V131.5C125.5 193 319.7 203.1 528.5 197.5C737.3 191.9 1279.5 131.5 1440 24Z" fill="#B88BAB" fill-opacity="0.4"/>
<path d="M1440 24V212H0.5V131.5C125.5 193 319.7 203.1 528.5 197.5C737.3 191.9 1279.5 131.5 1440 24Z" fill="#B88BAB" fill-opacity="0.4"/>
<path d="M1440 24V212H0.5V131.5C125.5 193 319.7 203.1 528.5 197.5C737.3 191.9 1279.5 131.5 1440 24Z" fill="#B88BAB" fill-opacity="0.4"/>
<path d="M1440 24V212H0.5V131.5C125.5 193 319.7 203.1 528.5 197.5C737.3 191.9 1279.5 131.5 1440 24Z" fill="#B88BAB" fill-opacity="0.4"/>
<path d="M1440 66.5V212H0.5V158.5C90.3334 188.667 319.7 203.1 528.5 197.5C737.3 191.9 1224.83 140.5 1440 66.5Z" fill="black"/>
</svg>
